<?xml version="1.0" encoding="UTF-8"?>
<svg id="Layer_1" data-name="Layer 1" xmlns="http://www.w3.org/2000/svg" xmlns:xlink="http://www.w3.org/1999/xlink" viewBox="0 0 1108.33 252.94">
  <defs>
    <style>
      .cls-1 {
        fill: url(#linear-gradient);
      }

      .cls-2 {
        fill: #1d0e23;
      }
    </style>
    <linearGradient id="linear-gradient" x1="-10.02" y1="221.56" x2="306.07" y2="28.71" gradientUnits="userSpaceOnUse">
      <stop offset=".05" stop-color="#ba67a8"/>
      <stop offset=".22" stop-color="#b667a8"/>
      <stop offset=".37" stop-color="#ab68aa"/>
      <stop offset=".52" stop-color="#986aac"/>
      <stop offset=".67" stop-color="#7e6eb0"/>
      <stop offset=".81" stop-color="#5c72b5"/>
      <stop offset=".93" stop-color="#3b76ba"/>
    </linearGradient>
  </defs>
  <g>
    <path class="cls-2" d="M414.92,70.85h51.85c18.37,0,33.31,8.58,33.31,28.16,0,8.76-5.49,16.82-11.67,19.91,12.7,2.75,22.15,14.08,22.15,28.5,0,22.83-17.34,34.68-42.23,34.68h-53.39V70.85Zm50.82,42.06c8.58,0,13.56-4.64,13.56-12.19s-4.81-12.7-14.42-12.7h-30.04v24.89h30.9Zm1.2,52.02c13.91,0,22.83-5.67,22.83-17.17s-8.24-17.85-20.94-17.85h-33.99v35.02h32.1Z"/>
    <path class="cls-2" d="M525.14,139.69c0-24.72,20.09-44.29,45.15-44.29s45.15,19.57,45.15,44.29-20.09,44.12-45.15,44.12-45.15-19.57-45.15-44.12Zm70.9,0c0-14.94-11.16-25.92-25.75-25.92s-25.75,10.99-25.75,25.92,11.16,25.75,25.75,25.75,25.75-10.99,25.75-25.75Z"/>
    <path class="cls-2" d="M631.75,97.12h19.06v12.19c6.35-9.44,16.14-13.91,27.47-13.91,23,0,30.56,15.28,30.56,37.94v48.76h-19.06v-46.35c0-13.91-3.09-21.97-17.34-21.97-12.53,0-21.63,9.79-21.63,23.86v44.46h-19.06V97.12Z"/>
    <path class="cls-2" d="M723.94,139.69c0-24.38,19.06-44.29,43.78-44.29,22.66,0,40.86,19.74,40.86,43.61,0,3.61-.51,7.38-.51,7.38h-64.38c2.75,13.56,13.73,20.6,26.44,20.6,8.58,0,17.51-2.58,24.38-7.38l7.55,14.08c-9.61,6.52-20.95,10.13-32.28,10.13-24.21,0-45.84-16.14-45.84-44.12Zm66.1-7.38c-1.89-12.19-11.67-20.26-23.35-20.26-10.99,0-20.6,8.07-23.18,20.26h46.52Z"/>
    <path class="cls-2" d="M824.89,69.13h19.06v112.96h-19.06V69.13Z"/>
    <path class="cls-2" d="M860.26,139.69c0-24.38,19.06-44.29,43.78-44.29,22.66,0,40.86,19.74,40.86,43.61,0,3.61-.51,7.38-.51,7.38h-64.38c2.75,13.56,13.73,20.6,26.44,20.6,8.58,0,17.51-2.58,24.38-7.38l7.55,14.08c-9.61,6.52-20.95,10.13-32.28,10.13-24.21,0-45.84-16.14-45.84-44.12Zm66.1-7.38c-1.89-12.19-11.67-20.26-23.35-20.26-10.99,0-20.6,8.07-23.18,20.26h46.52Z"/>
    <path class="cls-2" d="M956.74,171.45l7.21-15.62c5.49,4.46,14.25,10.13,26.95,10.13,7.73,0,16.83-2.92,16.83-8.93s-8.58-7.73-17-10.13c-16.14-4.46-29.87-9.27-29.87-25.92s17-25.58,31.93-25.58c12.7,0,21.12,3.26,30.39,8.76l-7.04,15.45c-7.55-4.29-14.76-6.35-23.18-6.35-6.35,0-12.7,2.92-12.7,7.38,0,5.84,7.04,7.21,14.59,8.76,15.79,3.43,32.28,9.79,32.28,27.3,0,19.92-20.43,27.12-36.22,27.12-17.51,0-29.53-7.9-34.16-12.36Z"/>
    <path class="cls-2" d="M1037.95,171.45l7.21-15.62c5.49,4.46,14.25,10.13,26.95,10.13,7.73,0,16.83-2.92,16.83-8.93s-8.58-7.73-17-10.13c-16.14-4.46-29.87-9.27-29.87-25.92s17-25.58,31.93-25.58c12.7,0,21.12,3.26,30.39,8.76l-7.04,15.45c-7.55-4.29-14.76-6.35-23.18-6.35-6.35,0-12.7,2.92-12.7,7.38,0,5.84,7.04,7.21,14.59,8.76,15.79,3.43,32.28,9.79,32.28,27.3,0,19.92-20.43,27.12-36.22,27.12-17.51,0-29.53-7.9-34.16-12.36Z"/>
  </g>
  <path class="cls-1" d="M297.93,130.77c16.68-9.35,30.71-24.03,30.71-50.4v-.67c0-16.03-5.34-29.04-16.02-39.72-13.36-13.35-34.39-20.69-61.09-20.69h-36.34c-12.27,0-17.14-2.63-25.22-6.97-10.21-5.49-22.92-12.32-46.52-12.32s-36.3,6.83-46.52,12.32c-8.07,4.34-12.95,6.96-25.22,6.96s-17.14-2.62-25.21-6.96C36.3,6.83,23.59,0,0,0V44.98c12.27,0,17.14,2.62,25.21,6.96,10.21,5.49,22.92,12.32,46.51,12.32s36.3-6.83,46.52-12.32c8.07-4.34,12.95-6.96,25.22-6.96s17.15,2.62,25.22,6.96c10.21,5.49,22.92,12.32,46.51,12.32v.09h28.67c21.7,0,33.71,8.68,33.71,24.03v.67c0,17.36-15.72,23.34-38.42,23.34h-25.07c-11.42-.16-16.3-2.73-24.11-6.93-10.21-5.49-22.92-12.32-46.52-12.32s-36.3,6.83-46.52,12.32c-8.07,4.34-12.95,6.96-25.22,6.96s-17.14-2.62-25.21-6.96c-10.21-5.49-22.92-12.32-46.51-12.32v44.98c12.27,0,17.14,2.62,25.21,6.96,10.21,5.49,22.92,12.32,46.51,12.32s36.3-6.83,46.52-12.32c8.07-4.34,12.95-6.96,25.22-6.96s17.15,2.62,25.22,6.96c10.21,5.49,22.92,12.32,46.51,12.32h37.34c26.37,0,38.05,8.76,38.05,24.45v.67c0,17.36-13.68,25.37-36.38,25.37h-39.01v.08c-12.27,0-17.14-2.62-25.22-6.96-10.21-5.49-22.92-12.32-46.52-12.32s-36.3,6.83-46.52,12.32c-8.07,4.34-12.95,6.96-25.22,6.96s-17.14-2.62-25.21-6.96c-10.21-5.49-22.92-12.32-46.51-12.32v44.98c12.27,0,17.14,2.62,25.21,6.96,10.21,5.49,22.92,12.32,46.51,12.32s36.3-6.83,46.52-12.32c8.07-4.34,12.95-6.96,25.22-6.96s17.15,2.62,25.22,6.96c10.21,5.49,22.92,12.32,46.51,12.32h39.01c52.74,0,87.45-21.36,87.45-64.09v-.67c0-31.38-16.69-47.06-43.72-57.41Z"/>
</svg>