<?xml version="1.0" encoding="UTF-8"?>
<svg id="Layer_1" data-name="Layer 1" xmlns="http://www.w3.org/2000/svg" xmlns:xlink="http://www.w3.org/1999/xlink" viewBox="0 0 450.28 296.36">
  <defs>
    <style>
      .cls-1 {
        fill: url(#linear-gradient);
      }

      .cls-2 {
        fill: #fff;
      }
    </style>
    <linearGradient id="linear-gradient" x1="105.7" y1="143.88" x2="310.96" y2="18.65" gradientUnits="userSpaceOnUse">
      <stop offset=".05" stop-color="#ba67a8"/>
      <stop offset=".22" stop-color="#b667a8"/>
      <stop offset=".37" stop-color="#ab68aa"/>
      <stop offset=".52" stop-color="#986aac"/>
      <stop offset=".67" stop-color="#7e6eb0"/>
      <stop offset=".81" stop-color="#5c72b5"/>
      <stop offset=".93" stop-color="#3b76ba"/>
    </linearGradient>
  </defs>
  <g>
    <path class="cls-2" d="M0,223.01H33.67c11.93,0,21.63,5.57,21.63,18.28,0,5.69-3.57,10.92-7.58,12.93,8.25,1.78,14.38,9.14,14.38,18.51,0,14.83-11.26,22.52-27.42,22.52H0v-72.24Zm33,27.31c5.57,0,8.81-3.01,8.81-7.92s-3.12-8.25-9.36-8.25H12.93v16.16h20.07Zm.78,33.78c9.03,0,14.83-3.68,14.83-11.15s-5.35-11.59-13.6-11.59H12.93v22.74h20.85Z"/>
    <path class="cls-2" d="M71.57,267.71c0-16.05,13.04-28.76,29.32-28.76s29.32,12.71,29.32,28.76-13.04,28.65-29.32,28.65-29.32-12.71-29.32-28.65Zm46.04,0c0-9.7-7.25-16.83-16.72-16.83s-16.72,7.13-16.72,16.83,7.25,16.72,16.72,16.72,16.72-7.13,16.72-16.72Z"/>
    <path class="cls-2" d="M140.8,240.06h12.38v7.92c4.12-6.13,10.48-9.03,17.84-9.03,14.94,0,19.84,9.92,19.84,24.64v31.66h-12.38v-30.1c0-9.03-2.01-14.27-11.26-14.27-8.14,0-14.05,6.35-14.05,15.5v28.87h-12.38v-55.18Z"/>
    <path class="cls-2" d="M200.67,267.71c0-15.83,12.38-28.76,28.43-28.76,14.72,0,26.53,12.82,26.53,28.32,0,2.34-.33,4.79-.33,4.79h-41.81c1.78,8.81,8.92,13.38,17.17,13.38,5.57,0,11.37-1.67,15.83-4.79l4.91,9.14c-6.24,4.24-13.6,6.58-20.96,6.58-15.72,0-29.77-10.48-29.77-28.65Zm42.92-4.79c-1.23-7.92-7.58-13.16-15.16-13.16-7.13,0-13.38,5.24-15.05,13.16h30.21Z"/>
    <path class="cls-2" d="M266.22,221.89h12.37v73.35h-12.37v-73.35Z"/>
    <path class="cls-2" d="M289.19,267.71c0-15.83,12.37-28.76,28.43-28.76,14.72,0,26.53,12.82,26.53,28.32,0,2.34-.33,4.79-.33,4.79h-41.81c1.78,8.81,8.92,13.38,17.17,13.38,5.57,0,11.37-1.67,15.83-4.79l4.91,9.14c-6.24,4.24-13.6,6.58-20.96,6.58-15.72,0-29.77-10.48-29.77-28.65Zm42.92-4.79c-1.23-7.92-7.58-13.16-15.16-13.16-7.13,0-13.38,5.24-15.05,13.16h30.21Z"/>
    <path class="cls-2" d="M351.84,288.34l4.68-10.14c3.57,2.9,9.25,6.58,17.5,6.58,5.02,0,10.92-1.89,10.92-5.8s-5.57-5.02-11.04-6.58c-10.48-2.9-19.4-6.02-19.4-16.83s11.04-16.61,20.74-16.61c8.25,0,13.71,2.12,19.73,5.69l-4.57,10.03c-4.91-2.79-9.59-4.12-15.05-4.12-4.12,0-8.25,1.9-8.25,4.79,0,3.79,4.57,4.68,9.48,5.69,10.26,2.23,20.96,6.35,20.96,17.73,0,12.93-13.27,17.61-23.52,17.61-11.37,0-19.17-5.13-22.18-8.03Z"/>
    <path class="cls-2" d="M404.58,288.34l4.68-10.14c3.57,2.9,9.25,6.58,17.5,6.58,5.02,0,10.92-1.89,10.92-5.8s-5.57-5.02-11.04-6.58c-10.48-2.9-19.4-6.02-19.4-16.83s11.04-16.61,20.74-16.61c8.25,0,13.71,2.12,19.73,5.69l-4.57,10.03c-4.91-2.79-9.59-4.12-15.05-4.12-4.12,0-8.25,1.9-8.25,4.79,0,3.79,4.57,4.68,9.48,5.69,10.26,2.23,20.96,6.35,20.96,17.73,0,12.93-13.27,17.61-23.52,17.61-11.37,0-19.17-5.13-22.18-8.03Z"/>
  </g>
  <path class="cls-1" d="M305.67,84.92c10.83-6.07,19.94-15.61,19.94-32.73v-.43c0-10.41-3.47-18.86-10.4-25.8-8.67-8.67-22.33-13.44-39.67-13.44h-23.6c-7.97,0-11.13-1.71-16.38-4.52-6.63-3.56-14.89-8-30.21-8s-23.57,4.44-30.21,8c-5.24,2.82-8.41,4.52-16.38,4.52s-11.13-1.7-16.37-4.52c-6.63-3.56-14.88-8-30.2-8V29.21c7.97,0,11.13,1.7,16.37,4.52,6.63,3.57,14.88,8,30.2,8s23.57-4.44,30.21-8c5.24-2.82,8.41-4.52,16.38-4.52s11.13,1.7,16.38,4.52c6.63,3.56,14.88,8,30.2,8v.06h18.61c14.09,0,21.89,5.64,21.89,15.61v.43c0,11.27-10.21,15.15-24.95,15.15h-16.28c-7.42-.11-10.58-1.77-15.66-4.5-6.63-3.56-14.89-8-30.21-8s-23.57,4.44-30.21,8c-5.24,2.82-8.41,4.52-16.38,4.52s-11.13-1.7-16.37-4.52c-6.63-3.56-14.88-8-30.2-8v29.21c7.97,0,11.13,1.7,16.37,4.52,6.63,3.57,14.88,8,30.2,8s23.57-4.44,30.21-8c5.24-2.82,8.41-4.52,16.38-4.52s11.13,1.7,16.38,4.52c6.63,3.56,14.88,8,30.2,8h24.25c17.13,0,24.71,5.69,24.71,15.88v.43c0,11.27-8.89,16.47-23.63,16.47h-25.33v.05c-7.97,0-11.13-1.7-16.38-4.52-6.63-3.56-14.89-8-30.21-8s-23.57,4.44-30.21,8c-5.24,2.82-8.41,4.52-16.38,4.52s-11.13-1.7-16.37-4.52c-6.63-3.56-14.88-8-30.2-8v29.21c7.97,0,11.13,1.7,16.37,4.52,6.63,3.57,14.88,8,30.2,8s23.57-4.44,30.21-8c5.24-2.82,8.41-4.52,16.38-4.52s11.13,1.7,16.38,4.52c6.63,3.56,14.88,8,30.2,8h25.33c34.25,0,56.79-13.87,56.79-41.62v-.43c0-20.38-10.84-30.56-28.39-37.28Z"/>
</svg>